<svg width="22" height="18" viewBox="0 0 22 18" fill="none" xmlns="http://www.w3.org/2000/svg">
<path d="M2.81395 0.767442L19.186 17.1395M13.0465 11.2416C12.5034 11.7277 11.7862 12.0233 11 12.0233C9.30461 12.0233 7.93023 10.6489 7.93023 8.95349C7.93023 8.16727 8.2258 7.45008 8.71189 6.90698M18.7847 12.6451C19.3693 12.1361 19.8923 11.6241 20.3426 11.1503C21.5292 9.90187 21.5292 8.00511 20.3426 6.75666C18.3414 4.65104 14.9042 1.7907 11 1.7907C10.0879 1.7907 9.20129 1.94681 8.35253 2.21293M5.37209 3.63602C3.87961 4.58873 2.60688 5.75764 1.65737 6.75666C0.470798 8.0051 0.470798 9.90187 1.65737 11.1503C3.65864 13.2559 7.09575 16.1163 11 16.1163C12.9115 16.1163 14.7111 15.4306 16.285 14.4836" stroke="#7D848D" stroke-width="1.5" stroke-linecap="round"/>
</svg>
